<svg width="2000" height="710" viewBox="0 0 2000 710" fill="none" xmlns="http://www.w3.org/2000/svg">
<g clip-path="url(#clip0_660_489)">
<path fill-rule="evenodd" clip-rule="evenodd" d="M373.528 275.514C351.275 250.097 321.516 237.206 285.076 237.206C248.647 237.206 218.794 250.087 196.345 275.496C179.392 294.743 169.518 317.282 167.001 342.481L166.948 343.011H221.21C227.189 312.583 253.914 290.533 284.935 290.533C320.773 290.533 349.93 319.683 349.93 355.515C349.93 391.35 320.773 420.5 284.935 420.5C253.864 420.5 227.224 398.478 221.236 368.027H166.912L166.921 368.116C169.382 394.268 179.595 417.399 197.275 436.874C219.524 461.397 249.066 473.832 285.076 473.832C320.504 473.832 349.845 461.405 372.282 436.892C393.042 414.251 403.567 386.874 403.567 355.515C403.567 325.055 393.458 298.137 373.528 275.514Z" fill="black"/>
<path fill-rule="evenodd" clip-rule="evenodd" d="M1152.29 239.869V292.752H1223.24V470.75H1285V292.752H1355.95V239.869H1152.29Z" fill="#E52C35"/>
<path fill-rule="evenodd" clip-rule="evenodd" d="M1130.74 392.098C1114.55 400.677 1102.53 406.478 1095.03 409.332C1084.33 413.302 1073.49 415.311 1062.81 415.311C1044.34 415.31 1028.98 409.573 1017.17 398.254C1005.44 387.016 999.487 372.46 999.487 354.994C999.489 337.554 1005.46 323.123 1017.26 312.102C1029.17 300.957 1044.88 295.309 1063.96 295.309C1074.86 295.308 1085.49 297.118 1095.55 300.689C1105.9 304.355 1116.83 309.741 1128.05 316.703L1137.93 322.818V259.161L1135.02 257.251C1114.72 243.816 1089.65 237 1060.52 237C1022.85 237 991.997 249.286 968.823 273.501C947.229 295.945 936.28 323.689 936.28 355.947C936.28 387.938 946.417 415.213 966.414 437.012C988.661 461.307 1019.07 473.628 1056.78 473.628C1071.29 473.628 1084.98 471.823 1097.49 468.265C1109.88 464.728 1123.17 458.934 1136.98 451.034L1140.24 449.173V387.065L1130.74 392.098Z" fill="black"/>
<path fill-rule="evenodd" clip-rule="evenodd" d="M858.533 240.079L763.656 365.353V240.079H701.902V470.959H752.682L851.264 339.167V470.959H913.031V240.079H858.533Z" fill="black"/>
<path fill-rule="evenodd" clip-rule="evenodd" d="M478.072 352.754C478.072 342.605 480.731 333.594 485.974 325.983C491.024 318.65 497.436 315.086 505.57 315.086H521.297V391.377H506.437C497.708 391.377 491.016 387.858 485.96 380.62C480.727 373.119 478.072 363.747 478.072 352.754ZM573.725 315.086H589.451C597.764 315.086 604.219 318.641 609.17 325.956C614.33 333.59 616.949 342.606 616.949 352.754C616.949 363.951 614.339 373.381 609.193 380.789C604.243 387.916 597.499 391.377 588.585 391.377H573.725V315.086ZM651.994 288.382C636.449 273.157 616.561 265.438 592.891 265.438H576.955V239.869H518.062V265.438H502.121C478.652 265.438 458.763 273.268 443.01 288.717C426.484 305.029 418.107 326.575 418.107 352.754C418.107 380.028 426.356 401.805 442.631 417.476C458.846 433.107 480.312 441.031 506.437 441.031H518.062V470.75H576.955V441.031H588.585C614.7 441.031 636.166 433.107 652.385 417.485C668.664 401.801 676.918 380.023 676.918 352.754C676.918 326.134 668.527 304.472 651.994 288.382Z" fill="black"/>
<path fill-rule="evenodd" clip-rule="evenodd" d="M284.934 318.178C265.895 318.178 250.139 332.548 247.889 350.989L0.353516 351.003V360.041L247.891 360.05C250.143 378.481 265.898 392.86 284.934 392.86C305.501 392.86 322.284 376.076 322.284 355.516C322.284 334.948 305.501 318.178 284.934 318.178Z" fill="#E52C35"/>
<path fill-rule="evenodd" clip-rule="evenodd" d="M1832.49 343.011V239.869H1770.71V327.435H1685.99V239.869H1624.22V343.011H1832.49Z" fill="#E52C35"/>
<path fill-rule="evenodd" clip-rule="evenodd" d="M1624.22 368.027V470.75H1685.99V382.544H1770.71V470.75H1832.49V368.027H1624.22Z" fill="#E52C35"/>
<path d="M1519.84 350.989H2000.35V360.023L1519.84 360.05V350.989Z" fill="black"/>
<path d="M1494.26 314.76L1500.53 324.256L1511.89 324.938" stroke="black" stroke-width="8.4" stroke-linecap="round" stroke-linejoin="round"/>
<path d="M1508.17 311.035L1491.63 339.681M1523.43 344.928L1518.34 355.106L1523.43 365.283" stroke="black" stroke-width="8.4" stroke-linecap="round" stroke-linejoin="round"/>
<path d="M1533.61 355.106L1500.53 355.106M1511.89 385.274L1500.53 385.956L1494.26 395.451" stroke="black" stroke-width="8.4" stroke-linecap="round" stroke-linejoin="round"/>
<path d="M1508.16 399.177L1491.63 370.531M1471.18 395.452L1464.91 385.956L1453.55 385.274" stroke="black" stroke-width="8.4" stroke-linecap="round" stroke-linejoin="round"/>
<path d="M1457.28 399.177L1473.82 370.531M1442.01 365.284L1447.1 355.107L1442.01 344.929" stroke="black" stroke-width="8.4" stroke-linecap="round" stroke-linejoin="round"/>
<path d="M1431.83 355.107L1464.91 355.107M1453.55 324.939L1464.91 324.257L1471.18 314.761" stroke="black" stroke-width="8.4" stroke-linecap="round" stroke-linejoin="round"/>
<path d="M1457.28 311.036L1473.82 339.682" stroke="black" stroke-width="8.4" stroke-linecap="round" stroke-linejoin="round"/>
<circle cx="1483" cy="355" r="16.5" stroke="black" stroke-width="9"/>
<path fill-rule="evenodd" clip-rule="evenodd" d="M1546.31 368.027C1540.24 398.347 1513.62 420.282 1482.65 420.282C1446.8 420.282 1417.65 391.137 1417.65 355.31C1417.65 319.474 1446.8 290.325 1482.65 290.325C1513.76 290.323 1540.51 312.463 1546.41 343.011H1600.65L1600.59 342.486C1598.11 317.202 1588.24 294.601 1571.25 275.308C1548.99 249.893 1519.22 237 1482.79 237C1446.36 237 1416.5 249.883 1394.06 275.29C1374.12 297.937 1364 324.859 1364 355.31C1364 386.642 1374.43 414.014 1394.98 436.67C1417.24 461.191 1446.78 473.628 1482.79 473.628C1518.22 473.628 1547.55 461.2 1569.98 436.692C1587.79 417.284 1598.1 394.215 1600.61 368.125L1600.62 368.027H1546.31Z" fill="#E52C35"/>
<rect x="1446" y="216" width="78" height="63" fill="#E52C35"/>
<circle cx="1484.5" cy="209.5" r="18.5" stroke="#E52C35" stroke-width="10"/>
</g>
<defs>
<clipPath id="clip0_660_489">
<rect width="2000" height="710" fill="white"/>
</clipPath>
</defs>
</svg>
